<svg width="35" height="39" viewBox="0 0 35 39" fill="none" xmlns="http://www.w3.org/2000/svg">
<path d="M10.7917 35H24.2083L26.1528 27.2222H8.84722L10.7917 35ZM10.7917 38.8889C9.88426 38.8889 9.09028 38.6134 8.40972 38.0625C7.72917 37.5116 7.27546 36.7986 7.04861 35.9236L4.86111 27.2222H30.1389L27.9514 35.9236C27.7245 36.7986 27.2708 37.5116 26.5903 38.0625C25.9097 38.6134 25.1157 38.8889 24.2083 38.8889H10.7917ZM3.88889 23.3333H31.1111V19.4444H3.88889V23.3333ZM17.5 11.6667C17.5 8.42593 18.6343 5.6713 20.9028 3.40278C23.1713 1.13426 25.9259 0 29.1667 0C29.1667 2.91667 28.2431 5.44445 26.3958 7.58333C24.5486 9.72222 22.2315 11.0185 19.4444 11.4722V15.5556H35V23.3333C35 24.4028 34.6195 25.3186 33.8586 26.0808C33.0977 26.8431 32.1819 27.2235 31.1111 27.2222H3.88889C2.81944 27.2222 1.90426 26.8418 1.14333 26.0808C0.382407 25.3199 0.0012963 24.4041 0 23.3333V15.5556H15.5556V11.4722C12.7685 11.0185 10.4514 9.72222 8.60417 7.58333C6.75694 5.44445 5.83333 2.91667 5.83333 0C9.07407 0 11.8287 1.13426 14.0972 3.40278C16.3657 5.6713 17.5 8.42593 17.5 11.6667Z" fill="black"/>
</svg>
