<svg width="35" height="26" viewBox="0 0 35 26" fill="none" xmlns="http://www.w3.org/2000/svg">
<path d="M28.6364 22.2727H6.36364V3.18182H28.6364M31.8182 0H3.18182C1.41591 0 0 1.41591 0 3.18182V22.2727C0 23.1166 0.335226 23.9259 0.931933 24.5226C1.52864 25.1193 2.33795 25.4545 3.18182 25.4545H31.8182C32.6621 25.4545 33.4714 25.1193 34.0681 24.5226C34.6648 23.9259 35 23.1166 35 22.2727V3.18182C35 2.33795 34.6648 1.52864 34.0681 0.931933C33.4714 0.335226 32.6621 0 31.8182 0ZM9.54545 6.36364H19.0909V14.3182H9.54545V6.36364ZM20.6818 6.36364H25.4545V9.54545H20.6818V6.36364ZM25.4545 11.1364V19.0909H20.6818V11.1364H25.4545ZM9.54545 15.9091H19.0909V19.0909H9.54545V15.9091Z" fill="black"/>
</svg>
